<svg xmlns="http://www.w3.org/2000/svg" width="398" height="120"><g fill="#333"><path d="M66.9 83.9l-14.1-50.9h-4.1l-15 50.9h-5.2v2h12v-2h-4.8l4.6-15.6h12.4l4.2 15.6h-4.5v2h19v-2h-4.5zm-26.1-17.6l5.9-20.1 5.4 20.1h-11.3zM0 33v2h4.7v48.9h-4.7v2h20v-2h-5.3v-24.1h5c3.6 0 5 4 5.1 8.5h2v-19h-2c-.1 4.6-1.6 8.5-5.1 8.5h-5v-22.8h10.2c5 0 8 6 8 13.1h2v-15.1h-34.9zM95 86.4zM75 53.4c.8 3.3 3.1 5.8 6.1 7.3 2.1 1.1 4.2 1.8 6.5 2.7 2.1.9 5 1.7 7 2.8 2.2 1.2 3.1 2.7 3.9 4.7.9 2.1 1 4 .5 6.3-.7 3.3-2.2 6.2-5.2 7.8l-.3.1c-1.5.6-3.1.8-4.7.6-1.2-.2-2.5-.7-3.7-1.4-1.3-.8-2.5-1.6-3.4-2.6-3.7-3.9-4.5-9.1-5.3-12.6h-1.9v16.7h2v-1.5c0-.6.7-1 1.4-.6 4 2.5 11.4 4.1 16.8 2.8 3.9-1.2 7.1-2.8 9.4-6.5 2-3.3 3.2-6.8 3.1-10.8-.1-5.6-2.5-9.7-7.6-12.4-3.4-1.8-7.6-2.6-11-4.2-2.3-1.1-4.4-2.5-5.5-4.8-1.8-3.9-1.4-10 2.4-13 2-1.6 4.8-1.6 7.2-1.4 9.2 1.6 9.6 12 9.7 16.2h2v-15l-4.4-1.1c-4.3-1-9.1-2.7-13.7-1.4-5 1.5-8.6 4.3-10.5 9.4-1.8 4.1-1.8 7.9-.8 11.9zM93.2 33.1z"/><polygon points="109.4,33.2 109.4,35.2 113.8,35.2 113.8,83.9 109.4,83.9 109.4,85.9 113.8,85.9 123.8,85.9 128.3,85.9 128.3,83.9 123.8,83.9 123.8,60.5 137.7,60.5 137.7,83.9 133.3,83.9 133.3,85.9 137.7,85.9 147.8,85.9 152.2,85.9 152.2,83.9 147.8,83.9 147.8,35.2 152.2,35.2 152.2,33.2 147.8,33.2 137.7,33.2 133.3,33.2 133.3,35.2 137.7,35.2 137.7,58.5 123.8,58.5 123.8,35.2 128.3,35.2 128.3,33.2 123.8,33.2 113.8,33.2"/><polygon points="155.4,33.2 155.4,35.2 160.6,35.2 160.6,83.9 155.4,83.9 155.4,85.9 160.6,85.9 170.7,85.9 175.1,85.9 175.1,83.9 170.7,83.9 170.7,35.2 175.1,35.2 175.1,33.2 170.7,33.2 160.6,33.2"/><polygon points="265.1,33 265.1,35 269.6,35 269.6,83.9 265.1,83.9 265.1,85.9 269.6,85.9 279.6,85.9 284,85.9 284,83.9 279.6,83.9 279.6,35 284,35 284,33 279.6,33 269.6,33"/><path d="M308.4 86.7c.1-.1.2-.1 0 0zM306.6 33.3zM321.7 35v13.1h2c0-7.1 3-13.1 8-13.1h3.6v48.9h-5.2v2h20.5v-2h-5.2v-48.9h3.6c5 0 8 6 8 13.1h2v-15.1h-37.5v2h.2z"/><polygon points="222.7,33.3 222.7,35.3 226.9,35.3 226.9,83.8 223.2,83.8 223.2,85.8 227.2,85.8 229.2,85.8 233.1,85.8 233.1,83.8 229.2,83.8 229.2,39.3 253.1,85.9 258.5,85.9 258.5,35 262,35 262,33 258.1,33 256.1,33 252.1,33 252.1,35 256.1,35 256.1,72.2 236.2,33.3 227.2,33.3"/><path d="M207.9 59.2"/><path d="M199.1 32.4c-11.8 0-21.3 8.7-21.3 27 0 18 9.5 27 21.3 27s21.3-8.5 21.3-27c0-18.4-9.6-27-21.3-27zm0 52.5c-5.9 0-10.7-8.5-10.7-25.5 0-17.3 4.8-25.5 10.7-25.5s10.7 8.1 10.7 25.5c0 17.5-4.8 25.5-10.7 25.5zM392.2 83.9l-14.2-50.8h-4.1l-15 50.8h-5.2v2h12v-2h-4.8l4.6-15.6h12.4l4.2 15.6h-4.5v2h19v-2h-4.4zm-26.1-17.6l5.9-20.1 5.4 20.1h-11.3zM288.3 53.4c.8 3.3 3.1 5.8 6.1 7.3 2.1 1.1 4.2 1.8 6.5 2.7 2.1.9 5 1.7 7 2.8 2.2 1.2 3.1 2.7 3.9 4.7.9 2.1 1 4 .5 6.3-.7 3.3-2.2 6.2-5.2 7.8l-.3.1c-1.5.6-3.1.8-4.7.6-1.2-.2-2.5-.7-3.7-1.4-1.3-.8-2.5-1.6-3.4-2.6-3.7-3.9-4.5-9.1-5.3-12.6h-1.9v16.7h2v-1.5c0-.6.7-1 1.4-.6 4 2.5 11.4 4.1 16.8 2.8 3.9-1.2 7.1-2.8 9.4-6.5 2-3.3 3.2-6.8 3.1-10.8-.1-5.6-2.5-9.7-7.6-12.4-3.4-1.8-7.6-2.6-11-4.2-2.3-1.1-4.4-2.5-5.5-4.8-1.8-3.9-1.4-10 2.4-13 2-1.6 4.8-1.6 7.2-1.4 9.2 1.6 9.6 12 9.7 16.2h2v-15l-4.4-1.1c-4.3-1-9.1-2.7-13.7-1.4-5 1.5-8.6 4.3-10.5 9.4-1.7 4.1-1.7 7.9-.8 11.9z"/></g></svg>