<?xml version="1.0" standalone="no"?>
<!DOCTYPE svg PUBLIC "-//W3C//DTD SVG 20010904//EN"
 "http://www.w3.org/TR/2001/REC-SVG-20010904/DTD/svg10.dtd">
<svg version="1.0" xmlns="http://www.w3.org/2000/svg"
 width="950.000000pt" height="475.000000pt" viewBox="0 0 950.000000 475.000000"
 preserveAspectRatio="xMidYMid meet">
<metadata>
Created by potrace 1.11, written by Peter Selinger 2001-2013
</metadata>
<g transform="translate(0.000000,475.000000) scale(0.100000,-0.100000)"
fill="#000000" stroke="none">
<path d="M0 2375 l0 -2375 4750 0 4750 0 0 2375 0 2375 -4750 0 -4750 0 0
-2375z m5040 1505 c47 -11 127 -41 179 -66 78 -38 109 -60 175 -128 87 -87
129 -155 167 -271 20 -63 23 -94 27 -312 l4 -243 -266 0 -266 0 0 163 c0 197
-11 246 -70 305 -23 23 -61 47 -87 56 -59 20 -156 20 -216 0 -57 -19 -121 -86
-139 -146 -10 -34 -13 -213 -13 -853 0 -765 1 -813 19 -864 38 -110 139 -169
271 -159 96 8 167 54 211 138 16 30 19 63 22 213 l4 177 265 0 265 0 -5 -227
c-4 -256 -12 -296 -76 -428 -93 -188 -272 -318 -514 -371 -100 -23 -315 -22
-432 0 -181 35 -344 121 -444 233 -63 70 -125 187 -154 290 -21 77 -22 88 -25
938 -2 609 0 883 8 940 59 406 403 657 880 640 78 -3 157 -12 210 -25z"/>
</g>
</svg>
