<?xml version="1.0" standalone="no"?>
<!DOCTYPE svg PUBLIC "-//W3C//DTD SVG 20010904//EN"
 "http://www.w3.org/TR/2001/REC-SVG-20010904/DTD/svg10.dtd">
<svg version="1.0" xmlns="http://www.w3.org/2000/svg"
 width="950.000000pt" height="475.000000pt" viewBox="0 0 950.000000 475.000000"
 preserveAspectRatio="xMidYMid meet">
<metadata>
Created by potrace 1.11, written by Peter Selinger 2001-2013
</metadata>
<g transform="translate(0.000000,475.000000) scale(0.100000,-0.100000)"
fill="#000000" stroke="none">
<path d="M0 2375 l0 -2375 4750 0 4750 0 0 2375 0 2375 -4750 0 -4750 0 0
-2375z m5175 1463 c3 -13 131 -671 285 -1463 154 -792 282 -1450 285 -1462 l5
-23 -297 0 -298 0 -60 333 -60 332 -302 3 -302 2 -10 -52 c-14 -72 -111 -605
-111 -612 0 -3 -121 -6 -270 -6 -148 0 -270 2 -270 4 0 2 135 668 300 1480
165 811 300 1478 300 1481 0 3 180 5 400 5 l400 0 5 -22z"/>
<path d="M4726 3180 c-10 -43 -196 -1118 -196 -1135 0 -13 27 -15 205 -15
l205 0 -5 23 c-3 12 -45 267 -95 567 -50 300 -94 554 -99 565 -8 19 -9 19 -15
-5z"/>
</g>
</svg>
