<?xml version="1.0" standalone="no"?>
<!DOCTYPE svg PUBLIC "-//W3C//DTD SVG 20010904//EN"
 "http://www.w3.org/TR/2001/REC-SVG-20010904/DTD/svg10.dtd">
<svg version="1.0" xmlns="http://www.w3.org/2000/svg"
 width="950.000000pt" height="475.000000pt" viewBox="0 0 950.000000 475.000000"
 preserveAspectRatio="xMidYMid meet">
<metadata>
Created by potrace 1.12, written by Peter Selinger 2001-2015
</metadata>
<g transform="translate(0.000000,475.000000) scale(0.100000,-0.100000)"
fill="#000000" stroke="none">
<path d="M0 2375 l0 -2375 4750 0 4750 0 0 2375 0 2375 -4750 0 -4750 0 0
-2375z m2710 1505 c47 -11 127 -41 179 -66 78 -38 109 -60 175 -128 87 -87
129 -155 167 -271 20 -63 23 -94 27 -312 l4 -243 -266 0 -266 0 0 163 c0 197
-11 246 -70 305 -23 23 -61 47 -87 56 -59 20 -156 20 -216 0 -57 -19 -121 -86
-139 -146 -10 -34 -13 -213 -13 -853 0 -765 1 -813 19 -864 38 -110 139 -169
271 -159 96 8 167 54 211 138 16 30 19 63 22 213 l4 177 265 0 265 0 -5 -227
c-4 -256 -12 -296 -76 -428 -134 -272 -453 -421 -828 -385 -319 30 -536 157
-653 382 -23 43 -50 112 -63 155 -21 77 -22 88 -25 938 -2 609 0 883 8 940 50
346 307 580 696 634 103 15 295 5 394 -19z m1930 0 c47 -11 127 -41 179 -66
78 -38 109 -60 175 -128 87 -87 129 -155 167 -271 20 -63 23 -94 27 -312 l4
-243 -266 0 -266 0 0 163 c0 197 -11 246 -70 305 -23 23 -61 47 -87 56 -59 20
-156 20 -216 0 -57 -19 -121 -86 -139 -146 -10 -34 -13 -213 -13 -853 0 -765
1 -813 19 -864 38 -110 139 -169 271 -159 96 8 167 54 211 138 16 30 19 63 22
213 l4 177 265 0 265 0 -5 -227 c-4 -256 -12 -296 -76 -428 -134 -272 -453
-421 -828 -385 -319 30 -536 157 -653 382 -23 43 -50 112 -63 155 -21 77 -22
88 -25 938 -2 609 0 883 8 940 50 346 307 580 696 634 103 15 295 5 394 -19z
m1264 -47 c3 -16 55 -401 116 -858 119 -893 118 -891 129 -878 5 4 66 403 137
886 l129 877 281 0 280 0 122 -862 c68 -475 122 -871 122 -880 0 -10 5 -18 10
-18 6 0 10 6 10 13 0 6 52 396 115 866 63 469 115 860 115 867 0 12 47 14 260
14 l259 0 -5 -27 c-2 -16 -108 -671 -234 -1458 -126 -786 -232 -1445 -235
-1462 l-6 -33 -272 0 -272 0 -143 942 c-79 519 -145 945 -148 947 -2 2 -7 2
-10 -1 -3 -4 -72 -428 -152 -945 l-147 -938 -278 -3 c-152 -1 -277 -1 -277 2
0 7 -480 2941 -484 2959 -4 16 15 17 284 17 l288 0 6 -27z"/>
</g>
</svg>
