<?xml version="1.0" standalone="no"?>
<!DOCTYPE svg PUBLIC "-//W3C//DTD SVG 20010904//EN"
 "http://www.w3.org/TR/2001/REC-SVG-20010904/DTD/svg10.dtd">
<svg version="1.0" xmlns="http://www.w3.org/2000/svg"
 width="50.000000pt" height="50.000000pt" viewBox="0 0 50.000000 50.000000"
 preserveAspectRatio="xMidYMid meet">
<metadata>
Created by potrace 1.12, written by Peter Selinger 2001-2015
</metadata>
<g transform="translate(0.000000,50.000000) scale(0.100000,-0.100000)"
fill="#000000" stroke="none">
<path d="M115 485 c-49 -17 -90 -62 -104 -112 -14 -50 -14 -197 0 -248 14 -50
64 -100 114 -114 55 -15 212 -13 258 3 88 32 116 88 117 234 0 143 -24 196
-105 233 -50 23 -219 26 -280 4z m272 -55 c51 -31 63 -65 63 -180 0 -169 -31
-200 -200 -200 -169 0 -200 31 -200 200 0 169 31 200 200 200 87 0 111 -4 137
-20z"/>
<path d="M133 420 c-32 -13 -57 -57 -56 -97 2 -69 78 -111 141 -79 30 16 52
43 52 65 0 19 -45 12 -58 -9 -15 -24 -54 -26 -76 -4 -37 37 -4 90 50 81 24 -4
34 -1 39 11 12 33 -42 52 -92 32z"/>
<path d="M303 423 c-26 -5 -76 -60 -67 -74 9 -15 30 -10 49 11 40 44 105 11
91 -46 -7 -25 -44 -41 -71 -30 -9 3 -19 -3 -25 -15 -9 -15 -8 -20 5 -24 8 -3
22 -7 31 -10 8 -3 31 2 50 10 77 32 76 138 0 170 -20 8 -37 14 -38 14 -2 -1
-13 -4 -25 -6z"/>
<path d="M86 214 c-34 -89 51 -172 132 -130 29 15 34 15 66 -1 27 -12 43 -14
68 -7 44 13 82 68 74 109 -8 38 -16 46 -43 39 -18 -5 -21 -10 -13 -24 14 -26
12 -46 -6 -64 -35 -36 -94 -4 -94 51 0 16 -6 23 -20 23 -14 0 -20 -7 -20 -23
0 -33 -28 -67 -54 -67 -40 0 -74 58 -44 76 7 5 5 11 -7 21 -24 17 -32 17 -39
-3z"/>
</g>
</svg>
